<svg xmlns="http://www.w3.org/2000/svg" viewBox="0 0 200 200">
  <rect width="200" height="200" rx="20" fill="#FBFBFB" />
  <g transform="translate(100,110)">
    <path d="M0 -20 C -18 -48, -42 -48, -60 -20 C -42 -10, -18 -10, 0 -20 Z" fill="#FFDDE3" />
    <path d="M0 -20 C 18 -48, 42 -48, 60 -20 C 42 -10, 18 -10, 0 -20 Z" fill="#FFDDE3" />
    <path d="M0 -10 C -12 -30, -30 -30, -50 -10 C -30 -2, -12 -2, 0 -10 Z" fill="#FFDFE6" />
    <path d="M0 -10 C 12 -30, 30 -30, 50 -10 C 30 -2, 12 -2, 0 -10 Z" fill="#FFDFE6" />
    <ellipse cx="0" cy="10" rx="30" ry="10" fill="#FFF6E6" />
  </g>
  <g opacity="0.08">
    <circle cx="160" cy="40" r="20" fill="#A7F3D0" />
  </g>
</svg>
